<svg xmlns="http://www.w3.org/2000/svg" viewBox="0 0 760 180" font-family="Menlo,monospace" font-size="13">
  <rect width="760" height="180" rx="8" fill="#0a0f0d"/>
  <rect x="0.75" y="0.75" width="758.5" height="178.5" rx="8" fill="none" stroke="#1d2b24" stroke-width="1.5"/>
  <circle cx="20" cy="18" r="4" fill="#ff7369"/>
  <circle cx="34" cy="18" r="4" fill="#f0b357"/>
  <circle cx="48" cy="18" r="4" fill="#3fe081"/>
  <g stroke="#58685f" fill="none" stroke-width="1.5">
    <rect x="20" y="70" width="150" height="60" rx="4"/>
    <rect x="230" y="70" width="150" height="60" rx="4"/>
    <rect x="440" y="70" width="150" height="60" rx="4"/>
    <rect x="640" y="70" width="100" height="60" rx="4" stroke="#3fe081"/>
  </g>
  <g fill="#c6d5cb" text-anchor="middle">
    <text x="95" y="95">index.md</text>
    <text x="95" y="115" font-size="10" fill="#58685f">git push</text>
    <text x="305" y="95">GitHub Actions</text>
    <text x="305" y="115" font-size="10" fill="#58685f">検証・変換</text>
    <text x="515" y="95">vite-react-ssg</text>
    <text x="515" y="115" font-size="10" fill="#58685f">静的HTML生成</text>
    <text x="690" y="95" fill="#3fe081">Pages</text>
    <text x="690" y="115" font-size="10" fill="#58685f">公開</text>
  </g>
  <g stroke="#3fe081" stroke-width="1.5" fill="#3fe081">
    <line x1="170" y1="100" x2="222" y2="100"/>
    <path d="M222 100 l-8 -4 v8 z"/>
    <line x1="380" y1="100" x2="432" y2="100"/>
    <path d="M432 100 l-8 -4 v8 z"/>
    <line x1="590" y1="100" x2="632" y2="100"/>
    <path d="M632 100 l-8 -4 v8 z"/>
  </g>
</svg>
